# xmcd CD database file
#
# Track frame offsets:
#	150
#	27570
#	45781
#	69086
#	94398
#	112985
#	143044
#	181036
#	207387
#	224669
#
# Disc length: 3520 seconds
#
# Revision: 0
# Processed by: cddbd v1.5.2PL0 Copyright (c) Steve Scherf et al.
# Submitted via: CDex 1.79
#
DISCID=890dbe0a
DTITLE=Gonska and Bergner - Entdeckung der Langsamkeit
DYEAR=1900
DGENRE=Jazz
TTITLE0=Redemption song
TTITLE1=My Funny Valentine
TTITLE2=Horizont Mit Wolken
TTITLE3=Zauberland
TTITLE4=Honshirabe
TTITLE5=Siegel
TTITLE6=Afro Blue
TTITLE7=Rondo A La Weimar
TTITLE8=Imagine
TTITLE9=Minimal Bolero
EXTD=
EXTT0=
EXTT1=
EXTT2=
EXTT3=
EXTT4=
EXTT5=
EXTT6=
EXTT7=
EXTT8=
EXTT9=
PLAYORDER=
